<svg xmlns="http://www.w3.org/2000/svg" viewBox="0 0 256.82 240.37"><title>Nike Air Jordan logo</title><path d="M528.59,407.06v-.8a15.41,15.41,0,0,1,3.61-10,11.4,11.4,0,0,1,9.23-4.41,15.41,15.41,0,0,1,10,3.61,13,13,0,0,1,4.82,9.63,12.36,12.36,0,0,1-3.61,10,13.13,13.13,0,0,1-9.63,4l-2.41.8.8,1.2-.8,4.41L539,438.36a2.31,2.31,0,0,1,.8,1.61l-1.61,8a9.34,9.34,0,0,1-1.61,2.41l-.8,3.21Q534.2,460,533,464t-2,6.42v1.61q-.8,4-1.2,6.42a41.45,41.45,0,0,1-2.81,8q-1.61,3.21,0,10.43l.8.8a11,11,0,0,0,2,5.62,11,11,0,0,1,2,5.62q.8,16.05-2.41,27.29l1.61,4.82q9.63,4.82,5.62,10.43l4,1.61q9.63,4.82,13.64,8.43t8,7.62a10.18,10.18,0,0,1,4.82,2.41l2.41.8a251.42,251.42,0,0,1,33.71,27.29l3.21,2.41v.8l-.8,1.61L608,606.1h.8a8.27,8.27,0,0,0,3.21,1.61h.8a2.31,2.31,0,0,0,1.61-.8l1.61-.8a12.58,12.58,0,0,1,3.21-2.41h3.21q.8,0,0,.8l-3.21,1.61-4,4.82h5.62l5.62.8a31.14,31.14,0,0,0,4-1.61l4-2.41q2.41-.8,4.82,1.61h.8q.8.8-.8,2.41l-9.63,8.83a19.87,19.87,0,0,1-7.22,4l-10.43,7.22a1,1,0,0,1-1.61,0L608,628.57l-1.61-3.21-2-2.81L602,619.34l-2-2.41-1.61-2-3.21-2.41a7.12,7.12,0,0,1-3.21-.8l-10.43-8q-2.41,0-5.62-2.41-12-10.43-16.05-12.84l-4.82-3.21-9.63-1.61q-4.82-.8-12.84-4.82l-6.42-3.21q-6.42-3.21-8.83-3.21l-3.21-1.61a24.88,24.88,0,0,1-4.82-1.61l-1.61-1.61a7.12,7.12,0,0,0-3.21.8l-16.05,8-20.06,8.83a111.14,111.14,0,0,1-15.25,10.43l-8.83,4-13.64,9.63a2,2,0,0,1-3.21,0l-1.61,1.61a13.13,13.13,0,0,1-3.21.8l-3.21,1.61v1.61h-1.61l-1.61,2.41q-1.61,3.21-3.21,3.61a2.88,2.88,0,0,0-2,1.2,4.67,4.67,0,0,1-.8,1.2L408.6,625l-2.41,1.61-3.61-.4-4.82.8-3.21.8q-4,.8-6.42-1.2a14.82,14.82,0,0,1-4-6q-1.61-2.41,1.61-4l.8-.8a3.27,3.27,0,0,1,2.41-.8h4.82l6.42-2.41,3.21-.8a2.84,2.84,0,0,1,3.21-3.21v-.8a7.12,7.12,0,0,1-.8-3.21,2.85,2.85,0,0,1-.4-2.41q.4-.8.8-.8h.4l.8,2.41q.8,4,2.41,2.41l.8-1.61a2.57,2.57,0,0,1,2.41-1.61l1.61,1.61,1.61-1.61-.8-.8a.71.71,0,0,1,.8-.8l3.21-3.21a51.09,51.09,0,0,1,9.63-8.83,89.94,89.94,0,0,1,24.08-13.64,12.27,12.27,0,0,1,8.83-4,59.08,59.08,0,0,1,9.63-12q5.62-4,8-5.62,1.61-3.21,4-3.21h.8l1.61-1.61a9.34,9.34,0,0,0,2.41-1.61v-4a20.88,20.88,0,0,1,.8-6.42q.8-2.41,4-2.41l3.21-3.21a15.93,15.93,0,0,1-1.61-7.22h-.8a8.63,8.63,0,0,1-1.61-4.82,35.18,35.18,0,0,1-3.21-6.42h-2.41q-.8,2.41-4,3.21l-.8,1.61a56.63,56.63,0,0,1-5.62,8.43q-2.41,2.81-8.83,6.82A22.53,22.53,0,0,0,462,541.9a7.42,7.42,0,0,0,0,4.82l-.8,1.61h.8q0,1.61.8,1.61h.8q1.61.8,1.61,2t-2.41.8a6.48,6.48,0,0,1-3.61-1.61,3.29,3.29,0,0,0-2-1.2l-2.41,2.41q-1.61,2.41-3.21,2t-.8-1.2l.8-.8q.8-1.61,0-1.61l-6.42,1.61q-.8.8-2,0t.4-1.61l4-1.61a.71.71,0,0,0-.8-.8,9.06,9.06,0,0,1-6.42.8l-4-.8-.8-.8a.71.71,0,0,1,.8-.8q3.21.8,8-.8l5.62-2.41,6.42-7.22.8-1.61A95.3,95.3,0,0,1,464,523a39.38,39.38,0,0,1,7.62-8.43l.8-3.21a52.47,52.47,0,0,1,3.21-5.62q1.61-2.41,4-6.42l2.41-3.21q3.21-4.82,7.22-4.82l2.41-2.41a3.27,3.27,0,0,0,.8-2.41l1.61-1.61-.8-.8q-4.82-4-4.82-7.22a10.39,10.39,0,0,1,3.61-9.63q4.41-4,8.83-3.61a10.66,10.66,0,0,1,6.82,2.81l1.61,1.61a.71.71,0,0,1,.8.8l3.21,1.61v2.41q1.61,1.61,1.61,2.41a38.91,38.91,0,0,1,4.82-5.62l4-12.84a14.25,14.25,0,0,1,1.61-6.42L527,448v-1.61l2.41-9.63H531l2.41-9.63a10,10,0,0,0,0-5.62l-3.21-8Z" transform="translate(-383.59 -391.82)" style="fill:#111"/></svg>